<mxfile host="app.diagrams.net" modified="2021-06-03T20:35:34.005Z" agent="5.0 (Windows NT 10.0; Win64; x64) AppleWebKit/537.36 (KHTML, like Gecko) Chrome/89.0.4389.128 Safari/537.36 OPR/75.0.3969.279" etag="9mSZfAUDvVF6Xuio9Rdo" version="14.7.4" type="github">
  <diagram id="AIzQV7zUeaNafmBLSvh0" name="Page-1">
    <mxGraphModel dx="2231" dy="795" grid="1" gridSize="10" guides="1" tooltips="1" connect="1" arrows="1" fold="1" page="1" pageScale="1" pageWidth="850" pageHeight="1100" background="#114B5F" math="0" shadow="0">
      <root>
        <mxCell id="0" />
        <mxCell id="1" parent="0" />
        <mxCell id="xS_lr7cDpIve7zk9qNYF-29" value="student" style="shape=table;startSize=30;container=1;collapsible=1;childLayout=tableLayout;fixedRows=1;rowLines=0;fontStyle=1;align=center;resizeLast=1;fillColor=#F45B69;strokeColor=#028090;fontColor=#E4FDE1;" parent="1" vertex="1">
          <mxGeometry x="40" y="290" width="180" height="330" as="geometry" />
        </mxCell>
        <mxCell id="xS_lr7cDpIve7zk9qNYF-30" value="" style="shape=partialRectangle;collapsible=0;dropTarget=0;pointerEvents=0;fillColor=none;top=0;left=0;bottom=1;right=0;points=[[0,0.5],[1,0.5]];portConstraint=eastwest;strokeColor=#028090;fontColor=#E4FDE1;" parent="xS_lr7cDpIve7zk9qNYF-29" vertex="1">
          <mxGeometry y="30" width="180" height="30" as="geometry" />
        </mxCell>
        <mxCell id="xS_lr7cDpIve7zk9qNYF-31" value="PK" style="shape=partialRectangle;connectable=0;fillColor=none;top=0;left=0;bottom=0;right=0;fontStyle=1;overflow=hidden;strokeColor=#028090;fontColor=#E4FDE1;" parent="xS_lr7cDpIve7zk9qNYF-30" vertex="1">
          <mxGeometry width="30" height="30" as="geometry" />
        </mxCell>
        <mxCell id="xS_lr7cDpIve7zk9qNYF-32" value="Student_id" style="shape=partialRectangle;connectable=0;fillColor=none;top=0;left=0;bottom=0;right=0;align=left;spacingLeft=6;fontStyle=5;overflow=hidden;strokeColor=#028090;fontColor=#E4FDE1;" parent="xS_lr7cDpIve7zk9qNYF-30" vertex="1">
          <mxGeometry x="30" width="150" height="30" as="geometry" />
        </mxCell>
        <mxCell id="xS_lr7cDpIve7zk9qNYF-33" value="" style="shape=partialRectangle;collapsible=0;dropTarget=0;pointerEvents=0;fillColor=none;top=0;left=0;bottom=0;right=0;points=[[0,0.5],[1,0.5]];portConstraint=eastwest;strokeColor=#028090;fontColor=#E4FDE1;" parent="xS_lr7cDpIve7zk9qNYF-29" vertex="1">
          <mxGeometry y="60" width="180" height="30" as="geometry" />
        </mxCell>
        <mxCell id="xS_lr7cDpIve7zk9qNYF-34" value="" style="shape=partialRectangle;connectable=0;fillColor=none;top=0;left=0;bottom=0;right=0;editable=1;overflow=hidden;strokeColor=#028090;fontColor=#E4FDE1;" parent="xS_lr7cDpIve7zk9qNYF-33" vertex="1">
          <mxGeometry width="30" height="30" as="geometry" />
        </mxCell>
        <mxCell id="xS_lr7cDpIve7zk9qNYF-35" value="name" style="shape=partialRectangle;connectable=0;fillColor=none;top=0;left=0;bottom=0;right=0;align=left;spacingLeft=6;overflow=hidden;strokeColor=#028090;fontColor=#E4FDE1;" parent="xS_lr7cDpIve7zk9qNYF-33" vertex="1">
          <mxGeometry x="30" width="150" height="30" as="geometry" />
        </mxCell>
        <mxCell id="xS_lr7cDpIve7zk9qNYF-36" value="" style="shape=partialRectangle;collapsible=0;dropTarget=0;pointerEvents=0;fillColor=none;top=0;left=0;bottom=0;right=0;points=[[0,0.5],[1,0.5]];portConstraint=eastwest;strokeColor=#028090;fontColor=#E4FDE1;" parent="xS_lr7cDpIve7zk9qNYF-29" vertex="1">
          <mxGeometry y="90" width="180" height="30" as="geometry" />
        </mxCell>
        <mxCell id="xS_lr7cDpIve7zk9qNYF-37" value="" style="shape=partialRectangle;connectable=0;fillColor=none;top=0;left=0;bottom=0;right=0;editable=1;overflow=hidden;strokeColor=#028090;fontColor=#E4FDE1;" parent="xS_lr7cDpIve7zk9qNYF-36" vertex="1">
          <mxGeometry width="30" height="30" as="geometry" />
        </mxCell>
        <mxCell id="xS_lr7cDpIve7zk9qNYF-38" value="age" style="shape=partialRectangle;connectable=0;fillColor=none;top=0;left=0;bottom=0;right=0;align=left;spacingLeft=6;overflow=hidden;strokeColor=#028090;fontColor=#E4FDE1;" parent="xS_lr7cDpIve7zk9qNYF-36" vertex="1">
          <mxGeometry x="30" width="150" height="30" as="geometry" />
        </mxCell>
        <mxCell id="xS_lr7cDpIve7zk9qNYF-39" value="" style="shape=partialRectangle;collapsible=0;dropTarget=0;pointerEvents=0;fillColor=none;top=0;left=0;bottom=0;right=0;points=[[0,0.5],[1,0.5]];portConstraint=eastwest;strokeColor=#028090;fontColor=#E4FDE1;" parent="xS_lr7cDpIve7zk9qNYF-29" vertex="1">
          <mxGeometry y="120" width="180" height="30" as="geometry" />
        </mxCell>
        <mxCell id="xS_lr7cDpIve7zk9qNYF-40" value="" style="shape=partialRectangle;connectable=0;fillColor=none;top=0;left=0;bottom=0;right=0;editable=1;overflow=hidden;strokeColor=#028090;fontColor=#E4FDE1;" parent="xS_lr7cDpIve7zk9qNYF-39" vertex="1">
          <mxGeometry width="30" height="30" as="geometry" />
        </mxCell>
        <mxCell id="xS_lr7cDpIve7zk9qNYF-41" value="" style="shape=partialRectangle;connectable=0;fillColor=none;top=0;left=0;bottom=0;right=0;align=left;spacingLeft=6;overflow=hidden;strokeColor=#028090;fontColor=#E4FDE1;" parent="xS_lr7cDpIve7zk9qNYF-39" vertex="1">
          <mxGeometry x="30" width="150" height="30" as="geometry" />
        </mxCell>
        <mxCell id="xS_lr7cDpIve7zk9qNYF-46" value="faculty" style="shape=table;startSize=30;container=1;collapsible=1;childLayout=tableLayout;fixedRows=1;rowLines=0;fontStyle=1;align=center;resizeLast=1;fillColor=#F45B69;strokeColor=#028090;fontColor=#E4FDE1;" parent="1" vertex="1">
          <mxGeometry x="620" y="380" width="180" height="430" as="geometry" />
        </mxCell>
        <mxCell id="xS_lr7cDpIve7zk9qNYF-47" value="" style="shape=partialRectangle;collapsible=0;dropTarget=0;pointerEvents=0;fillColor=none;top=0;left=0;bottom=1;right=0;points=[[0,0.5],[1,0.5]];portConstraint=eastwest;strokeColor=#028090;fontColor=#E4FDE1;" parent="xS_lr7cDpIve7zk9qNYF-46" vertex="1">
          <mxGeometry y="30" width="180" height="30" as="geometry" />
        </mxCell>
        <mxCell id="xS_lr7cDpIve7zk9qNYF-48" value="PK" style="shape=partialRectangle;connectable=0;fillColor=none;top=0;left=0;bottom=0;right=0;fontStyle=1;overflow=hidden;strokeColor=#028090;fontColor=#E4FDE1;" parent="xS_lr7cDpIve7zk9qNYF-47" vertex="1">
          <mxGeometry width="30" height="30" as="geometry" />
        </mxCell>
        <mxCell id="xS_lr7cDpIve7zk9qNYF-49" value="Faculty_id" style="shape=partialRectangle;connectable=0;fillColor=none;top=0;left=0;bottom=0;right=0;align=left;spacingLeft=6;fontStyle=5;overflow=hidden;strokeColor=#028090;fontColor=#E4FDE1;" parent="xS_lr7cDpIve7zk9qNYF-47" vertex="1">
          <mxGeometry x="30" width="150" height="30" as="geometry" />
        </mxCell>
        <mxCell id="xS_lr7cDpIve7zk9qNYF-50" value="" style="shape=partialRectangle;collapsible=0;dropTarget=0;pointerEvents=0;fillColor=none;top=0;left=0;bottom=0;right=0;points=[[0,0.5],[1,0.5]];portConstraint=eastwest;strokeColor=#028090;fontColor=#E4FDE1;" parent="xS_lr7cDpIve7zk9qNYF-46" vertex="1">
          <mxGeometry y="60" width="180" height="30" as="geometry" />
        </mxCell>
        <mxCell id="xS_lr7cDpIve7zk9qNYF-51" value="" style="shape=partialRectangle;connectable=0;fillColor=none;top=0;left=0;bottom=0;right=0;editable=1;overflow=hidden;strokeColor=#028090;fontColor=#E4FDE1;" parent="xS_lr7cDpIve7zk9qNYF-50" vertex="1">
          <mxGeometry width="30" height="30" as="geometry" />
        </mxCell>
        <mxCell id="xS_lr7cDpIve7zk9qNYF-52" value="salary" style="shape=partialRectangle;connectable=0;fillColor=none;top=0;left=0;bottom=0;right=0;align=left;spacingLeft=6;overflow=hidden;strokeColor=#028090;fontColor=#E4FDE1;" parent="xS_lr7cDpIve7zk9qNYF-50" vertex="1">
          <mxGeometry x="30" width="150" height="30" as="geometry" />
        </mxCell>
        <mxCell id="xS_lr7cDpIve7zk9qNYF-53" value="" style="shape=partialRectangle;collapsible=0;dropTarget=0;pointerEvents=0;fillColor=none;top=0;left=0;bottom=0;right=0;points=[[0,0.5],[1,0.5]];portConstraint=eastwest;strokeColor=#028090;fontColor=#E4FDE1;" parent="xS_lr7cDpIve7zk9qNYF-46" vertex="1">
          <mxGeometry y="90" width="180" height="30" as="geometry" />
        </mxCell>
        <mxCell id="xS_lr7cDpIve7zk9qNYF-54" value="" style="shape=partialRectangle;connectable=0;fillColor=none;top=0;left=0;bottom=0;right=0;editable=1;overflow=hidden;strokeColor=#028090;fontColor=#E4FDE1;" parent="xS_lr7cDpIve7zk9qNYF-53" vertex="1">
          <mxGeometry width="30" height="30" as="geometry" />
        </mxCell>
        <mxCell id="xS_lr7cDpIve7zk9qNYF-55" value="Designation" style="shape=partialRectangle;connectable=0;fillColor=none;top=0;left=0;bottom=0;right=0;align=left;spacingLeft=6;overflow=hidden;strokeColor=#028090;fontColor=#E4FDE1;" parent="xS_lr7cDpIve7zk9qNYF-53" vertex="1">
          <mxGeometry x="30" width="150" height="30" as="geometry" />
        </mxCell>
        <mxCell id="xS_lr7cDpIve7zk9qNYF-56" value="" style="shape=partialRectangle;collapsible=0;dropTarget=0;pointerEvents=0;fillColor=none;top=0;left=0;bottom=0;right=0;points=[[0,0.5],[1,0.5]];portConstraint=eastwest;strokeColor=#028090;fontColor=#E4FDE1;" parent="xS_lr7cDpIve7zk9qNYF-46" vertex="1">
          <mxGeometry y="120" width="180" height="30" as="geometry" />
        </mxCell>
        <mxCell id="xS_lr7cDpIve7zk9qNYF-57" value="" style="shape=partialRectangle;connectable=0;fillColor=none;top=0;left=0;bottom=0;right=0;editable=1;overflow=hidden;strokeColor=#028090;fontColor=#E4FDE1;" parent="xS_lr7cDpIve7zk9qNYF-56" vertex="1">
          <mxGeometry width="30" height="30" as="geometry" />
        </mxCell>
        <mxCell id="xS_lr7cDpIve7zk9qNYF-58" value="name" style="shape=partialRectangle;connectable=0;fillColor=none;top=0;left=0;bottom=0;right=0;align=left;spacingLeft=6;overflow=hidden;strokeColor=#028090;fontColor=#E4FDE1;" parent="xS_lr7cDpIve7zk9qNYF-56" vertex="1">
          <mxGeometry x="30" width="150" height="30" as="geometry" />
        </mxCell>
        <mxCell id="xS_lr7cDpIve7zk9qNYF-59" value="" style="shape=partialRectangle;collapsible=0;dropTarget=0;pointerEvents=0;fillColor=none;top=0;left=0;bottom=0;right=0;points=[[0,0.5],[1,0.5]];portConstraint=eastwest;strokeColor=#028090;fontColor=#E4FDE1;" parent="1" vertex="1">
          <mxGeometry x="620" y="530" width="180" height="30" as="geometry" />
        </mxCell>
        <mxCell id="xS_lr7cDpIve7zk9qNYF-60" value="" style="shape=partialRectangle;connectable=0;fillColor=none;top=0;left=0;bottom=0;right=0;editable=1;overflow=hidden;strokeColor=#028090;fontColor=#E4FDE1;" parent="xS_lr7cDpIve7zk9qNYF-59" vertex="1">
          <mxGeometry width="30" height="30" as="geometry" />
        </mxCell>
        <mxCell id="xS_lr7cDpIve7zk9qNYF-61" value="Dob" style="shape=partialRectangle;connectable=0;fillColor=none;top=0;left=0;bottom=0;right=0;align=left;spacingLeft=6;overflow=hidden;strokeColor=#028090;fontColor=#E4FDE1;" parent="xS_lr7cDpIve7zk9qNYF-59" vertex="1">
          <mxGeometry x="30" width="150" height="30" as="geometry" />
        </mxCell>
        <mxCell id="xS_lr7cDpIve7zk9qNYF-62" value="" style="shape=partialRectangle;collapsible=0;dropTarget=0;pointerEvents=0;fillColor=none;top=0;left=0;bottom=0;right=0;points=[[0,0.5],[1,0.5]];portConstraint=eastwest;strokeColor=#028090;fontColor=#E4FDE1;" parent="1" vertex="1">
          <mxGeometry x="620" y="560" width="180" height="30" as="geometry" />
        </mxCell>
        <mxCell id="xS_lr7cDpIve7zk9qNYF-63" value="" style="shape=partialRectangle;connectable=0;fillColor=none;top=0;left=0;bottom=0;right=0;editable=1;overflow=hidden;strokeColor=#028090;fontColor=#E4FDE1;" parent="xS_lr7cDpIve7zk9qNYF-62" vertex="1">
          <mxGeometry width="30" height="30" as="geometry" />
        </mxCell>
        <mxCell id="xS_lr7cDpIve7zk9qNYF-64" value="" style="shape=partialRectangle;connectable=0;fillColor=none;top=0;left=0;bottom=0;right=0;align=left;spacingLeft=6;overflow=hidden;strokeColor=#028090;fontColor=#E4FDE1;" parent="xS_lr7cDpIve7zk9qNYF-62" vertex="1">
          <mxGeometry x="30" width="150" height="30" as="geometry" />
        </mxCell>
        <mxCell id="xS_lr7cDpIve7zk9qNYF-65" value="Course" style="shape=table;startSize=30;container=1;collapsible=1;childLayout=tableLayout;fixedRows=1;rowLines=0;fontStyle=1;align=center;resizeLast=1;fillColor=#F45B69;strokeColor=#028090;fontColor=#E4FDE1;" parent="1" vertex="1">
          <mxGeometry x="280" y="660" width="180" height="190" as="geometry" />
        </mxCell>
        <mxCell id="xS_lr7cDpIve7zk9qNYF-66" value="" style="shape=partialRectangle;collapsible=0;dropTarget=0;pointerEvents=0;fillColor=none;top=0;left=0;bottom=1;right=0;points=[[0,0.5],[1,0.5]];portConstraint=eastwest;strokeColor=#028090;fontColor=#E4FDE1;" parent="xS_lr7cDpIve7zk9qNYF-65" vertex="1">
          <mxGeometry y="30" width="180" height="30" as="geometry" />
        </mxCell>
        <mxCell id="xS_lr7cDpIve7zk9qNYF-67" value="PK" style="shape=partialRectangle;connectable=0;fillColor=none;top=0;left=0;bottom=0;right=0;fontStyle=1;overflow=hidden;strokeColor=#028090;fontColor=#E4FDE1;" parent="xS_lr7cDpIve7zk9qNYF-66" vertex="1">
          <mxGeometry width="30" height="30" as="geometry" />
        </mxCell>
        <mxCell id="xS_lr7cDpIve7zk9qNYF-68" value="course_id" style="shape=partialRectangle;connectable=0;fillColor=none;top=0;left=0;bottom=0;right=0;align=left;spacingLeft=6;fontStyle=5;overflow=hidden;strokeColor=#028090;fontColor=#E4FDE1;" parent="xS_lr7cDpIve7zk9qNYF-66" vertex="1">
          <mxGeometry x="30" width="150" height="30" as="geometry" />
        </mxCell>
        <mxCell id="xS_lr7cDpIve7zk9qNYF-69" value="" style="shape=partialRectangle;collapsible=0;dropTarget=0;pointerEvents=0;fillColor=none;top=0;left=0;bottom=0;right=0;points=[[0,0.5],[1,0.5]];portConstraint=eastwest;strokeColor=#028090;fontColor=#E4FDE1;" parent="xS_lr7cDpIve7zk9qNYF-65" vertex="1">
          <mxGeometry y="60" width="180" height="30" as="geometry" />
        </mxCell>
        <mxCell id="xS_lr7cDpIve7zk9qNYF-70" value="FK" style="shape=partialRectangle;connectable=0;fillColor=none;top=0;left=0;bottom=0;right=0;editable=1;overflow=hidden;strokeColor=#028090;fontColor=#E4FDE1;" parent="xS_lr7cDpIve7zk9qNYF-69" vertex="1">
          <mxGeometry width="30" height="30" as="geometry" />
        </mxCell>
        <mxCell id="xS_lr7cDpIve7zk9qNYF-71" value="student_id" style="shape=partialRectangle;connectable=0;fillColor=none;top=0;left=0;bottom=0;right=0;align=left;spacingLeft=6;overflow=hidden;strokeColor=#028090;fontColor=#E4FDE1;" parent="xS_lr7cDpIve7zk9qNYF-69" vertex="1">
          <mxGeometry x="30" width="150" height="30" as="geometry" />
        </mxCell>
        <mxCell id="xS_lr7cDpIve7zk9qNYF-72" value="" style="shape=partialRectangle;collapsible=0;dropTarget=0;pointerEvents=0;fillColor=none;top=0;left=0;bottom=0;right=0;points=[[0,0.5],[1,0.5]];portConstraint=eastwest;strokeColor=#028090;fontColor=#E4FDE1;" parent="xS_lr7cDpIve7zk9qNYF-65" vertex="1">
          <mxGeometry y="90" width="180" height="30" as="geometry" />
        </mxCell>
        <mxCell id="xS_lr7cDpIve7zk9qNYF-73" value="Fk" style="shape=partialRectangle;connectable=0;fillColor=none;top=0;left=0;bottom=0;right=0;editable=1;overflow=hidden;strokeColor=#028090;fontColor=#E4FDE1;" parent="xS_lr7cDpIve7zk9qNYF-72" vertex="1">
          <mxGeometry width="30" height="30" as="geometry" />
        </mxCell>
        <mxCell id="xS_lr7cDpIve7zk9qNYF-74" value="faculty_id" style="shape=partialRectangle;connectable=0;fillColor=none;top=0;left=0;bottom=0;right=0;align=left;spacingLeft=6;overflow=hidden;strokeColor=#028090;fontColor=#E4FDE1;" parent="xS_lr7cDpIve7zk9qNYF-72" vertex="1">
          <mxGeometry x="30" width="150" height="30" as="geometry" />
        </mxCell>
        <mxCell id="xS_lr7cDpIve7zk9qNYF-75" value="" style="shape=partialRectangle;collapsible=0;dropTarget=0;pointerEvents=0;fillColor=none;top=0;left=0;bottom=0;right=0;points=[[0,0.5],[1,0.5]];portConstraint=eastwest;strokeColor=#028090;fontColor=#E4FDE1;" parent="xS_lr7cDpIve7zk9qNYF-65" vertex="1">
          <mxGeometry y="120" width="180" height="30" as="geometry" />
        </mxCell>
        <mxCell id="xS_lr7cDpIve7zk9qNYF-76" value="FK" style="shape=partialRectangle;connectable=0;fillColor=none;top=0;left=0;bottom=0;right=0;editable=1;overflow=hidden;strokeColor=#028090;fontColor=#E4FDE1;" parent="xS_lr7cDpIve7zk9qNYF-75" vertex="1">
          <mxGeometry width="30" height="30" as="geometry" />
        </mxCell>
        <mxCell id="xS_lr7cDpIve7zk9qNYF-77" value="Dept_id" style="shape=partialRectangle;connectable=0;fillColor=none;top=0;left=0;bottom=0;right=0;align=left;spacingLeft=6;overflow=hidden;strokeColor=#028090;fontColor=#E4FDE1;" parent="xS_lr7cDpIve7zk9qNYF-75" vertex="1">
          <mxGeometry x="30" width="150" height="30" as="geometry" />
        </mxCell>
        <mxCell id="xS_lr7cDpIve7zk9qNYF-78" value="" style="shape=partialRectangle;collapsible=0;dropTarget=0;pointerEvents=0;fillColor=none;top=0;left=0;bottom=0;right=0;points=[[0,0.5],[1,0.5]];portConstraint=eastwest;strokeColor=#028090;fontColor=#E4FDE1;" parent="1" vertex="1">
          <mxGeometry x="40" y="410" width="180" height="30" as="geometry" />
        </mxCell>
        <mxCell id="xS_lr7cDpIve7zk9qNYF-79" value="" style="shape=partialRectangle;connectable=0;fillColor=none;top=0;left=0;bottom=0;right=0;editable=1;overflow=hidden;strokeColor=#028090;fontColor=#E4FDE1;" parent="xS_lr7cDpIve7zk9qNYF-78" vertex="1">
          <mxGeometry width="30" height="30" as="geometry" />
        </mxCell>
        <mxCell id="xS_lr7cDpIve7zk9qNYF-80" value="Dob" style="shape=partialRectangle;connectable=0;fillColor=none;top=0;left=0;bottom=0;right=0;align=left;spacingLeft=6;overflow=hidden;strokeColor=#028090;fontColor=#E4FDE1;" parent="xS_lr7cDpIve7zk9qNYF-78" vertex="1">
          <mxGeometry x="30" width="150" height="30" as="geometry" />
        </mxCell>
        <mxCell id="xS_lr7cDpIve7zk9qNYF-81" value="" style="shape=partialRectangle;collapsible=0;dropTarget=0;pointerEvents=0;fillColor=none;top=0;left=0;bottom=0;right=0;points=[[0,0.5],[1,0.5]];portConstraint=eastwest;strokeColor=#028090;fontColor=#E4FDE1;" parent="1" vertex="1">
          <mxGeometry x="40" y="460" width="180" height="30" as="geometry" />
        </mxCell>
        <mxCell id="xS_lr7cDpIve7zk9qNYF-82" value="" style="shape=partialRectangle;connectable=0;fillColor=none;top=0;left=0;bottom=0;right=0;editable=1;overflow=hidden;strokeColor=#028090;fontColor=#E4FDE1;" parent="xS_lr7cDpIve7zk9qNYF-81" vertex="1">
          <mxGeometry width="30" height="30" as="geometry" />
        </mxCell>
        <mxCell id="xS_lr7cDpIve7zk9qNYF-83" value="phone _number" style="shape=partialRectangle;connectable=0;fillColor=none;top=0;left=0;bottom=0;right=0;align=left;spacingLeft=6;overflow=hidden;strokeColor=#028090;fontColor=#E4FDE1;" parent="xS_lr7cDpIve7zk9qNYF-81" vertex="1">
          <mxGeometry x="30" width="150" height="30" as="geometry" />
        </mxCell>
        <mxCell id="xS_lr7cDpIve7zk9qNYF-84" value="" style="shape=partialRectangle;collapsible=0;dropTarget=0;pointerEvents=0;fillColor=none;top=0;left=0;bottom=0;right=0;points=[[0,0.5],[1,0.5]];portConstraint=eastwest;strokeColor=#028090;fontColor=#E4FDE1;" parent="1" vertex="1">
          <mxGeometry x="620" y="560" width="180" height="30" as="geometry" />
        </mxCell>
        <mxCell id="xS_lr7cDpIve7zk9qNYF-85" value="" style="shape=partialRectangle;connectable=0;fillColor=none;top=0;left=0;bottom=0;right=0;editable=1;overflow=hidden;strokeColor=#028090;fontColor=#E4FDE1;" parent="xS_lr7cDpIve7zk9qNYF-84" vertex="1">
          <mxGeometry width="30" height="30" as="geometry" />
        </mxCell>
        <mxCell id="xS_lr7cDpIve7zk9qNYF-86" value="Age" style="shape=partialRectangle;connectable=0;fillColor=none;top=0;left=0;bottom=0;right=0;align=left;spacingLeft=6;overflow=hidden;strokeColor=#028090;fontColor=#E4FDE1;" parent="xS_lr7cDpIve7zk9qNYF-84" vertex="1">
          <mxGeometry x="30" width="150" height="30" as="geometry" />
        </mxCell>
        <mxCell id="xS_lr7cDpIve7zk9qNYF-100" value="Department" style="shape=table;startSize=30;container=1;collapsible=1;childLayout=tableLayout;fixedRows=1;rowLines=0;fontStyle=1;align=center;resizeLast=1;fillColor=#F45B69;strokeColor=#028090;fontColor=#E4FDE1;" parent="1" vertex="1">
          <mxGeometry x="300" y="400" width="180" height="160" as="geometry" />
        </mxCell>
        <mxCell id="xS_lr7cDpIve7zk9qNYF-101" value="" style="shape=partialRectangle;collapsible=0;dropTarget=0;pointerEvents=0;fillColor=none;top=0;left=0;bottom=1;right=0;points=[[0,0.5],[1,0.5]];portConstraint=eastwest;strokeColor=#028090;fontColor=#E4FDE1;" parent="xS_lr7cDpIve7zk9qNYF-100" vertex="1">
          <mxGeometry y="30" width="180" height="30" as="geometry" />
        </mxCell>
        <mxCell id="xS_lr7cDpIve7zk9qNYF-102" value="PK" style="shape=partialRectangle;connectable=0;fillColor=none;top=0;left=0;bottom=0;right=0;fontStyle=1;overflow=hidden;strokeColor=#028090;fontColor=#E4FDE1;" parent="xS_lr7cDpIve7zk9qNYF-101" vertex="1">
          <mxGeometry width="30" height="30" as="geometry" />
        </mxCell>
        <mxCell id="xS_lr7cDpIve7zk9qNYF-103" value="Dept_Id" style="shape=partialRectangle;connectable=0;fillColor=none;top=0;left=0;bottom=0;right=0;align=left;spacingLeft=6;fontStyle=5;overflow=hidden;strokeColor=#028090;fontColor=#E4FDE1;" parent="xS_lr7cDpIve7zk9qNYF-101" vertex="1">
          <mxGeometry x="30" width="150" height="30" as="geometry" />
        </mxCell>
        <mxCell id="xS_lr7cDpIve7zk9qNYF-104" value="" style="shape=partialRectangle;collapsible=0;dropTarget=0;pointerEvents=0;fillColor=none;top=0;left=0;bottom=0;right=0;points=[[0,0.5],[1,0.5]];portConstraint=eastwest;strokeColor=#028090;fontColor=#E4FDE1;" parent="xS_lr7cDpIve7zk9qNYF-100" vertex="1">
          <mxGeometry y="60" width="180" height="30" as="geometry" />
        </mxCell>
        <mxCell id="xS_lr7cDpIve7zk9qNYF-105" value="" style="shape=partialRectangle;connectable=0;fillColor=none;top=0;left=0;bottom=0;right=0;editable=1;overflow=hidden;strokeColor=#028090;fontColor=#E4FDE1;" parent="xS_lr7cDpIve7zk9qNYF-104" vertex="1">
          <mxGeometry width="30" height="30" as="geometry" />
        </mxCell>
        <mxCell id="xS_lr7cDpIve7zk9qNYF-106" value="phone_extention" style="shape=partialRectangle;connectable=0;fillColor=none;top=0;left=0;bottom=0;right=0;align=left;spacingLeft=6;overflow=hidden;strokeColor=#028090;fontColor=#E4FDE1;" parent="xS_lr7cDpIve7zk9qNYF-104" vertex="1">
          <mxGeometry x="30" width="150" height="30" as="geometry" />
        </mxCell>
        <mxCell id="xS_lr7cDpIve7zk9qNYF-107" value="" style="shape=partialRectangle;collapsible=0;dropTarget=0;pointerEvents=0;fillColor=none;top=0;left=0;bottom=0;right=0;points=[[0,0.5],[1,0.5]];portConstraint=eastwest;strokeColor=#028090;fontColor=#E4FDE1;" parent="xS_lr7cDpIve7zk9qNYF-100" vertex="1">
          <mxGeometry y="90" width="180" height="30" as="geometry" />
        </mxCell>
        <mxCell id="xS_lr7cDpIve7zk9qNYF-108" value="" style="shape=partialRectangle;connectable=0;fillColor=none;top=0;left=0;bottom=0;right=0;editable=1;overflow=hidden;strokeColor=#028090;fontColor=#E4FDE1;" parent="xS_lr7cDpIve7zk9qNYF-107" vertex="1">
          <mxGeometry width="30" height="30" as="geometry" />
        </mxCell>
        <mxCell id="xS_lr7cDpIve7zk9qNYF-109" value="Email" style="shape=partialRectangle;connectable=0;fillColor=none;top=0;left=0;bottom=0;right=0;align=left;spacingLeft=6;overflow=hidden;strokeColor=#028090;fontColor=#E4FDE1;" parent="xS_lr7cDpIve7zk9qNYF-107" vertex="1">
          <mxGeometry x="30" width="150" height="30" as="geometry" />
        </mxCell>
        <mxCell id="xS_lr7cDpIve7zk9qNYF-110" value="" style="shape=partialRectangle;collapsible=0;dropTarget=0;pointerEvents=0;fillColor=none;top=0;left=0;bottom=0;right=0;points=[[0,0.5],[1,0.5]];portConstraint=eastwest;strokeColor=#028090;fontColor=#E4FDE1;" parent="xS_lr7cDpIve7zk9qNYF-100" vertex="1">
          <mxGeometry y="120" width="180" height="30" as="geometry" />
        </mxCell>
        <mxCell id="xS_lr7cDpIve7zk9qNYF-111" value="" style="shape=partialRectangle;connectable=0;fillColor=none;top=0;left=0;bottom=0;right=0;editable=1;overflow=hidden;strokeColor=#028090;fontColor=#E4FDE1;" parent="xS_lr7cDpIve7zk9qNYF-110" vertex="1">
          <mxGeometry width="30" height="30" as="geometry" />
        </mxCell>
        <mxCell id="xS_lr7cDpIve7zk9qNYF-112" value="Name" style="shape=partialRectangle;connectable=0;fillColor=none;top=0;left=0;bottom=0;right=0;align=left;spacingLeft=6;overflow=hidden;strokeColor=#028090;fontColor=#E4FDE1;" parent="xS_lr7cDpIve7zk9qNYF-110" vertex="1">
          <mxGeometry x="30" width="150" height="30" as="geometry" />
        </mxCell>
        <mxCell id="xS_lr7cDpIve7zk9qNYF-113" value="University" style="shape=table;startSize=30;container=1;collapsible=1;childLayout=tableLayout;fixedRows=1;rowLines=0;fontStyle=1;align=center;resizeLast=1;fillColor=#F45B69;strokeColor=#028090;fontColor=#E4FDE1;" parent="1" vertex="1">
          <mxGeometry x="335" y="65" width="180" height="140" as="geometry" />
        </mxCell>
        <mxCell id="xS_lr7cDpIve7zk9qNYF-117" value="" style="shape=partialRectangle;collapsible=0;dropTarget=0;pointerEvents=0;fillColor=none;top=0;left=0;bottom=0;right=0;points=[[0,0.5],[1,0.5]];portConstraint=eastwest;strokeColor=#028090;fontColor=#E4FDE1;" parent="xS_lr7cDpIve7zk9qNYF-113" vertex="1">
          <mxGeometry y="30" width="180" height="30" as="geometry" />
        </mxCell>
        <mxCell id="xS_lr7cDpIve7zk9qNYF-118" value="Fk" style="shape=partialRectangle;connectable=0;fillColor=none;top=0;left=0;bottom=0;right=0;editable=1;overflow=hidden;strokeColor=#028090;fontColor=#E4FDE1;" parent="xS_lr7cDpIve7zk9qNYF-117" vertex="1">
          <mxGeometry width="30" height="30" as="geometry" />
        </mxCell>
        <mxCell id="xS_lr7cDpIve7zk9qNYF-119" value="Dept_id" style="shape=partialRectangle;connectable=0;fillColor=none;top=0;left=0;bottom=0;right=0;align=left;spacingLeft=6;overflow=hidden;strokeColor=#028090;fontColor=#E4FDE1;" parent="xS_lr7cDpIve7zk9qNYF-117" vertex="1">
          <mxGeometry x="30" width="150" height="30" as="geometry" />
        </mxCell>
        <mxCell id="xS_lr7cDpIve7zk9qNYF-120" value="" style="shape=partialRectangle;collapsible=0;dropTarget=0;pointerEvents=0;fillColor=none;top=0;left=0;bottom=0;right=0;points=[[0,0.5],[1,0.5]];portConstraint=eastwest;strokeColor=#028090;fontColor=#E4FDE1;" parent="xS_lr7cDpIve7zk9qNYF-113" vertex="1">
          <mxGeometry y="60" width="180" height="30" as="geometry" />
        </mxCell>
        <mxCell id="xS_lr7cDpIve7zk9qNYF-121" value="" style="shape=partialRectangle;connectable=0;fillColor=none;top=0;left=0;bottom=0;right=0;editable=1;overflow=hidden;strokeColor=#028090;fontColor=#E4FDE1;" parent="xS_lr7cDpIve7zk9qNYF-120" vertex="1">
          <mxGeometry width="30" height="30" as="geometry" />
        </mxCell>
        <mxCell id="xS_lr7cDpIve7zk9qNYF-122" value="Funding" style="shape=partialRectangle;connectable=0;fillColor=none;top=0;left=0;bottom=0;right=0;align=left;spacingLeft=6;overflow=hidden;strokeColor=#028090;fontColor=#E4FDE1;" parent="xS_lr7cDpIve7zk9qNYF-120" vertex="1">
          <mxGeometry x="30" width="150" height="30" as="geometry" />
        </mxCell>
        <mxCell id="xS_lr7cDpIve7zk9qNYF-123" value="" style="shape=partialRectangle;collapsible=0;dropTarget=0;pointerEvents=0;fillColor=none;top=0;left=0;bottom=0;right=0;points=[[0,0.5],[1,0.5]];portConstraint=eastwest;strokeColor=#028090;fontColor=#E4FDE1;" parent="xS_lr7cDpIve7zk9qNYF-113" vertex="1">
          <mxGeometry y="90" width="180" height="30" as="geometry" />
        </mxCell>
        <mxCell id="xS_lr7cDpIve7zk9qNYF-124" value="" style="shape=partialRectangle;connectable=0;fillColor=none;top=0;left=0;bottom=0;right=0;editable=1;overflow=hidden;strokeColor=#028090;fontColor=#E4FDE1;" parent="xS_lr7cDpIve7zk9qNYF-123" vertex="1">
          <mxGeometry width="30" height="30" as="geometry" />
        </mxCell>
        <mxCell id="xS_lr7cDpIve7zk9qNYF-125" value="" style="shape=partialRectangle;connectable=0;fillColor=none;top=0;left=0;bottom=0;right=0;align=left;spacingLeft=6;overflow=hidden;strokeColor=#028090;fontColor=#E4FDE1;" parent="xS_lr7cDpIve7zk9qNYF-123" vertex="1">
          <mxGeometry x="30" width="150" height="30" as="geometry" />
        </mxCell>
        <mxCell id="xS_lr7cDpIve7zk9qNYF-126" value="name" style="shape=partialRectangle;connectable=0;fillColor=none;top=0;left=0;bottom=0;right=0;align=left;spacingLeft=6;overflow=hidden;strokeColor=#028090;fontColor=#E4FDE1;" parent="1" vertex="1">
          <mxGeometry x="310" y="810" width="150" height="30" as="geometry" />
        </mxCell>
        <mxCell id="xS_lr7cDpIve7zk9qNYF-127" value="house" style="shape=partialRectangle;collapsible=0;dropTarget=0;pointerEvents=0;fillColor=none;top=0;left=0;bottom=0;right=0;points=[[0,0.5],[1,0.5]];portConstraint=eastwest;strokeColor=#028090;fontColor=#E4FDE1;" parent="1" vertex="1">
          <mxGeometry x="580" y="620" width="180" height="30" as="geometry" />
        </mxCell>
        <mxCell id="xS_lr7cDpIve7zk9qNYF-128" value="" style="shape=partialRectangle;connectable=0;fillColor=none;top=0;left=0;bottom=0;right=0;editable=1;overflow=hidden;strokeColor=#028090;fontColor=#E4FDE1;" parent="xS_lr7cDpIve7zk9qNYF-127" vertex="1">
          <mxGeometry width="30" height="30" as="geometry" />
        </mxCell>
        <mxCell id="xS_lr7cDpIve7zk9qNYF-129" value="" style="shape=partialRectangle;connectable=0;fillColor=none;top=0;left=0;bottom=0;right=0;align=left;spacingLeft=6;overflow=hidden;strokeColor=#028090;fontColor=#E4FDE1;" parent="xS_lr7cDpIve7zk9qNYF-127" vertex="1">
          <mxGeometry x="30" width="150" height="30" as="geometry" />
        </mxCell>
        <mxCell id="xS_lr7cDpIve7zk9qNYF-130" value="" style="shape=partialRectangle;collapsible=0;dropTarget=0;pointerEvents=0;fillColor=none;top=0;left=0;bottom=0;right=0;points=[[0,0.5],[1,0.5]];portConstraint=eastwest;strokeColor=#028090;fontColor=#E4FDE1;" parent="1" vertex="1">
          <mxGeometry x="620" y="650" width="180" height="30" as="geometry" />
        </mxCell>
        <mxCell id="xS_lr7cDpIve7zk9qNYF-131" value="" style="shape=partialRectangle;connectable=0;fillColor=none;top=0;left=0;bottom=0;right=0;editable=1;overflow=hidden;strokeColor=#028090;fontColor=#E4FDE1;" parent="xS_lr7cDpIve7zk9qNYF-130" vertex="1">
          <mxGeometry width="30" height="30" as="geometry" />
        </mxCell>
        <mxCell id="xS_lr7cDpIve7zk9qNYF-132" value="area" style="shape=partialRectangle;connectable=0;fillColor=none;top=0;left=0;bottom=0;right=0;align=left;spacingLeft=6;overflow=hidden;strokeColor=#028090;fontColor=#E4FDE1;" parent="xS_lr7cDpIve7zk9qNYF-130" vertex="1">
          <mxGeometry x="30" width="150" height="30" as="geometry" />
        </mxCell>
        <mxCell id="xS_lr7cDpIve7zk9qNYF-133" value="" style="shape=partialRectangle;collapsible=0;dropTarget=0;pointerEvents=0;fillColor=none;top=0;left=0;bottom=0;right=0;points=[[0,0.5],[1,0.5]];portConstraint=eastwest;strokeColor=#028090;fontColor=#E4FDE1;" parent="1" vertex="1">
          <mxGeometry x="620" y="770" width="180" height="20" as="geometry" />
        </mxCell>
        <mxCell id="xS_lr7cDpIve7zk9qNYF-134" value="" style="shape=partialRectangle;connectable=0;fillColor=none;top=0;left=0;bottom=0;right=0;editable=1;overflow=hidden;strokeColor=#028090;fontColor=#E4FDE1;" parent="xS_lr7cDpIve7zk9qNYF-133" vertex="1">
          <mxGeometry width="30" height="20" as="geometry" />
        </mxCell>
        <mxCell id="xS_lr7cDpIve7zk9qNYF-135" value="pincode" style="shape=partialRectangle;connectable=0;fillColor=none;top=0;left=0;bottom=0;right=0;align=left;spacingLeft=6;overflow=hidden;strokeColor=#028090;fontColor=#E4FDE1;" parent="xS_lr7cDpIve7zk9qNYF-133" vertex="1">
          <mxGeometry x="30" width="150" height="20" as="geometry" />
        </mxCell>
        <mxCell id="xS_lr7cDpIve7zk9qNYF-136" value="" style="shape=partialRectangle;collapsible=0;dropTarget=0;pointerEvents=0;fillColor=none;top=0;left=0;bottom=0;right=0;points=[[0,0.5],[1,0.5]];portConstraint=eastwest;strokeColor=#028090;fontColor=#E4FDE1;" parent="1" vertex="1">
          <mxGeometry x="620" y="680" width="180" height="30" as="geometry" />
        </mxCell>
        <mxCell id="xS_lr7cDpIve7zk9qNYF-137" value="" style="shape=partialRectangle;connectable=0;fillColor=none;top=0;left=0;bottom=0;right=0;editable=1;overflow=hidden;strokeColor=#028090;fontColor=#E4FDE1;" parent="xS_lr7cDpIve7zk9qNYF-136" vertex="1">
          <mxGeometry width="30" height="30" as="geometry" />
        </mxCell>
        <mxCell id="xS_lr7cDpIve7zk9qNYF-138" value="city" style="shape=partialRectangle;connectable=0;fillColor=none;top=0;left=0;bottom=0;right=0;align=left;spacingLeft=6;overflow=hidden;strokeColor=#028090;fontColor=#E4FDE1;" parent="xS_lr7cDpIve7zk9qNYF-136" vertex="1">
          <mxGeometry x="30" width="150" height="30" as="geometry" />
        </mxCell>
        <mxCell id="xS_lr7cDpIve7zk9qNYF-142" value="" style="shape=partialRectangle;collapsible=0;dropTarget=0;pointerEvents=0;fillColor=none;top=0;left=0;bottom=0;right=0;points=[[0,0.5],[1,0.5]];portConstraint=eastwest;strokeColor=#028090;fontColor=#E4FDE1;" parent="1" vertex="1">
          <mxGeometry x="620" y="720" width="180" height="30" as="geometry" />
        </mxCell>
        <mxCell id="xS_lr7cDpIve7zk9qNYF-143" value="" style="shape=partialRectangle;connectable=0;fillColor=none;top=0;left=0;bottom=0;right=0;editable=1;overflow=hidden;strokeColor=#028090;fontColor=#E4FDE1;" parent="xS_lr7cDpIve7zk9qNYF-142" vertex="1">
          <mxGeometry width="30" height="30" as="geometry" />
        </mxCell>
        <mxCell id="xS_lr7cDpIve7zk9qNYF-144" value="state" style="shape=partialRectangle;connectable=0;fillColor=none;top=0;left=0;bottom=0;right=0;align=left;spacingLeft=6;overflow=hidden;strokeColor=#028090;fontColor=#E4FDE1;" parent="xS_lr7cDpIve7zk9qNYF-142" vertex="1">
          <mxGeometry x="30" width="150" height="30" as="geometry" />
        </mxCell>
        <mxCell id="xS_lr7cDpIve7zk9qNYF-145" value="" style="shape=partialRectangle;collapsible=0;dropTarget=0;pointerEvents=0;fillColor=none;top=0;left=0;bottom=0;right=0;points=[[0,0.5],[1,0.5]];portConstraint=eastwest;strokeColor=#028090;fontColor=#E4FDE1;" parent="1" vertex="1">
          <mxGeometry x="620" y="590" width="180" height="30" as="geometry" />
        </mxCell>
        <mxCell id="xS_lr7cDpIve7zk9qNYF-146" value="" style="shape=partialRectangle;connectable=0;fillColor=none;top=0;left=0;bottom=0;right=0;editable=1;overflow=hidden;strokeColor=#028090;fontColor=#E4FDE1;" parent="xS_lr7cDpIve7zk9qNYF-145" vertex="1">
          <mxGeometry width="30" height="30" as="geometry" />
        </mxCell>
        <mxCell id="xS_lr7cDpIve7zk9qNYF-147" value="Phone_number" style="shape=partialRectangle;connectable=0;fillColor=none;top=0;left=0;bottom=0;right=0;align=left;spacingLeft=6;overflow=hidden;strokeColor=#028090;fontColor=#E4FDE1;" parent="xS_lr7cDpIve7zk9qNYF-145" vertex="1">
          <mxGeometry x="30" width="150" height="30" as="geometry" />
        </mxCell>
        <mxCell id="xS_lr7cDpIve7zk9qNYF-150" value="" style="shape=partialRectangle;collapsible=0;dropTarget=0;pointerEvents=0;fillColor=none;top=0;left=0;bottom=0;right=0;points=[[0,0.5],[1,0.5]];portConstraint=eastwest;strokeColor=#028090;fontColor=#E4FDE1;" parent="1" vertex="1">
          <mxGeometry x="40" y="480" width="180" height="30" as="geometry" />
        </mxCell>
        <mxCell id="xS_lr7cDpIve7zk9qNYF-151" value="" style="shape=partialRectangle;connectable=0;fillColor=none;top=0;left=0;bottom=0;right=0;editable=1;overflow=hidden;strokeColor=#028090;fontColor=#E4FDE1;" parent="xS_lr7cDpIve7zk9qNYF-150" vertex="1">
          <mxGeometry width="30" height="30" as="geometry" />
        </mxCell>
        <mxCell id="xS_lr7cDpIve7zk9qNYF-152" value="house" style="shape=partialRectangle;connectable=0;fillColor=none;top=0;left=0;bottom=0;right=0;align=left;spacingLeft=6;overflow=hidden;strokeColor=#028090;fontColor=#E4FDE1;" parent="xS_lr7cDpIve7zk9qNYF-150" vertex="1">
          <mxGeometry x="30" width="150" height="30" as="geometry" />
        </mxCell>
        <mxCell id="xS_lr7cDpIve7zk9qNYF-153" value="" style="shape=partialRectangle;collapsible=0;dropTarget=0;pointerEvents=0;fillColor=none;top=0;left=0;bottom=0;right=0;points=[[0,0.5],[1,0.5]];portConstraint=eastwest;strokeColor=#028090;fontColor=#E4FDE1;" parent="1" vertex="1">
          <mxGeometry x="40" y="430" width="180" height="30" as="geometry" />
        </mxCell>
        <mxCell id="xS_lr7cDpIve7zk9qNYF-154" value="" style="shape=partialRectangle;connectable=0;fillColor=none;top=0;left=0;bottom=0;right=0;editable=1;overflow=hidden;strokeColor=#028090;fontColor=#E4FDE1;" parent="xS_lr7cDpIve7zk9qNYF-153" vertex="1">
          <mxGeometry width="30" height="30" as="geometry" />
        </mxCell>
        <mxCell id="xS_lr7cDpIve7zk9qNYF-155" value="age" style="shape=partialRectangle;connectable=0;fillColor=none;top=0;left=0;bottom=0;right=0;align=left;spacingLeft=6;overflow=hidden;strokeColor=#028090;fontColor=#E4FDE1;" parent="xS_lr7cDpIve7zk9qNYF-153" vertex="1">
          <mxGeometry x="30" width="150" height="30" as="geometry" />
        </mxCell>
        <mxCell id="xS_lr7cDpIve7zk9qNYF-156" style="edgeStyle=orthogonalEdgeStyle;rounded=0;orthogonalLoop=1;jettySize=auto;html=1;exitX=0;exitY=0.5;exitDx=0;exitDy=0;entryX=0;entryY=0.5;entryDx=0;entryDy=0;strokeColor=#028090;fontColor=#E4FDE1;labelBackgroundColor=#114B5F;" parent="1" source="xS_lr7cDpIve7zk9qNYF-30" target="xS_lr7cDpIve7zk9qNYF-69" edge="1">
          <mxGeometry relative="1" as="geometry">
            <mxPoint x="270" y="740" as="targetPoint" />
            <Array as="points">
              <mxPoint x="-20" y="335" />
              <mxPoint x="-20" y="735" />
            </Array>
          </mxGeometry>
        </mxCell>
        <mxCell id="xS_lr7cDpIve7zk9qNYF-157" style="edgeStyle=orthogonalEdgeStyle;rounded=0;orthogonalLoop=1;jettySize=auto;html=1;exitX=0;exitY=0.5;exitDx=0;exitDy=0;entryX=0;entryY=0.5;entryDx=0;entryDy=0;strokeColor=#028090;fontColor=#E4FDE1;labelBackgroundColor=#114B5F;" parent="1" source="xS_lr7cDpIve7zk9qNYF-47" target="xS_lr7cDpIve7zk9qNYF-72" edge="1">
          <mxGeometry relative="1" as="geometry">
            <mxPoint x="210" y="760" as="targetPoint" />
            <Array as="points">
              <mxPoint x="540" y="425" />
              <mxPoint x="540" y="860" />
              <mxPoint x="210" y="860" />
              <mxPoint x="210" y="765" />
            </Array>
          </mxGeometry>
        </mxCell>
        <mxCell id="xS_lr7cDpIve7zk9qNYF-159" style="edgeStyle=orthogonalEdgeStyle;rounded=0;orthogonalLoop=1;jettySize=auto;html=1;exitX=0;exitY=0.5;exitDx=0;exitDy=0;entryX=0;entryY=0.5;entryDx=0;entryDy=0;strokeColor=#028090;fontColor=#E4FDE1;labelBackgroundColor=#114B5F;" parent="1" source="xS_lr7cDpIve7zk9qNYF-101" target="xS_lr7cDpIve7zk9qNYF-75" edge="1">
          <mxGeometry relative="1" as="geometry">
            <mxPoint x="240" y="800" as="targetPoint" />
            <Array as="points">
              <mxPoint x="250" y="445" />
              <mxPoint x="250" y="795" />
            </Array>
          </mxGeometry>
        </mxCell>
        <mxCell id="xS_lr7cDpIve7zk9qNYF-160" value="Hod" style="shape=table;startSize=30;container=1;collapsible=1;childLayout=tableLayout;fixedRows=1;rowLines=0;fontStyle=1;align=center;resizeLast=1;fillColor=#F45B69;strokeColor=#028090;fontColor=#E4FDE1;" parent="1" vertex="1">
          <mxGeometry x="610" y="30" width="180" height="210" as="geometry" />
        </mxCell>
        <mxCell id="xS_lr7cDpIve7zk9qNYF-161" value="" style="shape=partialRectangle;collapsible=0;dropTarget=0;pointerEvents=0;fillColor=none;top=0;left=0;bottom=1;right=0;points=[[0,0.5],[1,0.5]];portConstraint=eastwest;strokeColor=#028090;fontColor=#E4FDE1;" parent="xS_lr7cDpIve7zk9qNYF-160" vertex="1">
          <mxGeometry y="30" width="180" height="30" as="geometry" />
        </mxCell>
        <mxCell id="xS_lr7cDpIve7zk9qNYF-162" value="PK" style="shape=partialRectangle;connectable=0;fillColor=none;top=0;left=0;bottom=0;right=0;fontStyle=1;overflow=hidden;strokeColor=#028090;fontColor=#E4FDE1;" parent="xS_lr7cDpIve7zk9qNYF-161" vertex="1">
          <mxGeometry width="30" height="30" as="geometry" />
        </mxCell>
        <mxCell id="xS_lr7cDpIve7zk9qNYF-163" value="F_id" style="shape=partialRectangle;connectable=0;fillColor=none;top=0;left=0;bottom=0;right=0;align=left;spacingLeft=6;fontStyle=5;overflow=hidden;strokeColor=#028090;fontColor=#E4FDE1;" parent="xS_lr7cDpIve7zk9qNYF-161" vertex="1">
          <mxGeometry x="30" width="150" height="30" as="geometry" />
        </mxCell>
        <mxCell id="xS_lr7cDpIve7zk9qNYF-164" value="" style="shape=partialRectangle;collapsible=0;dropTarget=0;pointerEvents=0;fillColor=none;top=0;left=0;bottom=0;right=0;points=[[0,0.5],[1,0.5]];portConstraint=eastwest;strokeColor=#028090;fontColor=#E4FDE1;" parent="xS_lr7cDpIve7zk9qNYF-160" vertex="1">
          <mxGeometry y="60" width="180" height="30" as="geometry" />
        </mxCell>
        <mxCell id="xS_lr7cDpIve7zk9qNYF-165" value="" style="shape=partialRectangle;connectable=0;fillColor=none;top=0;left=0;bottom=0;right=0;editable=1;overflow=hidden;strokeColor=#028090;fontColor=#E4FDE1;" parent="xS_lr7cDpIve7zk9qNYF-164" vertex="1">
          <mxGeometry width="30" height="30" as="geometry" />
        </mxCell>
        <mxCell id="xS_lr7cDpIve7zk9qNYF-166" value="name" style="shape=partialRectangle;connectable=0;fillColor=none;top=0;left=0;bottom=0;right=0;align=left;spacingLeft=6;overflow=hidden;strokeColor=#028090;fontColor=#E4FDE1;" parent="xS_lr7cDpIve7zk9qNYF-164" vertex="1">
          <mxGeometry x="30" width="150" height="30" as="geometry" />
        </mxCell>
        <mxCell id="xS_lr7cDpIve7zk9qNYF-167" value="" style="shape=partialRectangle;collapsible=0;dropTarget=0;pointerEvents=0;fillColor=none;top=0;left=0;bottom=0;right=0;points=[[0,0.5],[1,0.5]];portConstraint=eastwest;strokeColor=#028090;fontColor=#E4FDE1;" parent="xS_lr7cDpIve7zk9qNYF-160" vertex="1">
          <mxGeometry y="90" width="180" height="30" as="geometry" />
        </mxCell>
        <mxCell id="xS_lr7cDpIve7zk9qNYF-168" value="" style="shape=partialRectangle;connectable=0;fillColor=none;top=0;left=0;bottom=0;right=0;editable=1;overflow=hidden;strokeColor=#028090;fontColor=#E4FDE1;" parent="xS_lr7cDpIve7zk9qNYF-167" vertex="1">
          <mxGeometry width="30" height="30" as="geometry" />
        </mxCell>
        <mxCell id="xS_lr7cDpIve7zk9qNYF-169" value="Phone number" style="shape=partialRectangle;connectable=0;fillColor=none;top=0;left=0;bottom=0;right=0;align=left;spacingLeft=6;overflow=hidden;strokeColor=#028090;fontColor=#E4FDE1;" parent="xS_lr7cDpIve7zk9qNYF-167" vertex="1">
          <mxGeometry x="30" width="150" height="30" as="geometry" />
        </mxCell>
        <mxCell id="xS_lr7cDpIve7zk9qNYF-170" value="" style="shape=partialRectangle;collapsible=0;dropTarget=0;pointerEvents=0;fillColor=none;top=0;left=0;bottom=0;right=0;points=[[0,0.5],[1,0.5]];portConstraint=eastwest;strokeColor=#028090;fontColor=#E4FDE1;" parent="xS_lr7cDpIve7zk9qNYF-160" vertex="1">
          <mxGeometry y="120" width="180" height="30" as="geometry" />
        </mxCell>
        <mxCell id="xS_lr7cDpIve7zk9qNYF-171" value="" style="shape=partialRectangle;connectable=0;fillColor=none;top=0;left=0;bottom=0;right=0;editable=1;overflow=hidden;strokeColor=#028090;fontColor=#E4FDE1;" parent="xS_lr7cDpIve7zk9qNYF-170" vertex="1">
          <mxGeometry width="30" height="30" as="geometry" />
        </mxCell>
        <mxCell id="xS_lr7cDpIve7zk9qNYF-172" value="" style="shape=partialRectangle;connectable=0;fillColor=none;top=0;left=0;bottom=0;right=0;align=left;spacingLeft=6;overflow=hidden;strokeColor=#028090;fontColor=#E4FDE1;" parent="xS_lr7cDpIve7zk9qNYF-170" vertex="1">
          <mxGeometry x="30" width="150" height="30" as="geometry" />
        </mxCell>
        <mxCell id="pw6W-h8T3FxFi5064eeH-2" value="Research" style="shape=table;startSize=30;container=1;collapsible=1;childLayout=tableLayout;fixedRows=1;rowLines=0;fontStyle=1;align=center;resizeLast=1;fillColor=#F45B69;strokeColor=#028090;fontColor=#E4FDE1;" vertex="1" parent="1">
          <mxGeometry x="-320" y="10" width="180" height="200" as="geometry" />
        </mxCell>
        <mxCell id="pw6W-h8T3FxFi5064eeH-3" value="" style="shape=partialRectangle;collapsible=0;dropTarget=0;pointerEvents=0;fillColor=none;top=0;left=0;bottom=1;right=0;points=[[0,0.5],[1,0.5]];portConstraint=eastwest;strokeColor=#028090;fontColor=#E4FDE1;" vertex="1" parent="pw6W-h8T3FxFi5064eeH-2">
          <mxGeometry y="30" width="180" height="30" as="geometry" />
        </mxCell>
        <mxCell id="pw6W-h8T3FxFi5064eeH-4" value="PK" style="shape=partialRectangle;connectable=0;fillColor=none;top=0;left=0;bottom=0;right=0;fontStyle=1;overflow=hidden;strokeColor=#028090;fontColor=#E4FDE1;" vertex="1" parent="pw6W-h8T3FxFi5064eeH-3">
          <mxGeometry width="30" height="30" as="geometry" />
        </mxCell>
        <mxCell id="pw6W-h8T3FxFi5064eeH-5" value="research_id" style="shape=partialRectangle;connectable=0;fillColor=none;top=0;left=0;bottom=0;right=0;align=left;spacingLeft=6;fontStyle=5;overflow=hidden;strokeColor=#028090;fontColor=#E4FDE1;" vertex="1" parent="pw6W-h8T3FxFi5064eeH-3">
          <mxGeometry x="30" width="150" height="30" as="geometry" />
        </mxCell>
        <mxCell id="pw6W-h8T3FxFi5064eeH-6" value="" style="shape=partialRectangle;collapsible=0;dropTarget=0;pointerEvents=0;fillColor=none;top=0;left=0;bottom=0;right=0;points=[[0,0.5],[1,0.5]];portConstraint=eastwest;strokeColor=#028090;fontColor=#E4FDE1;" vertex="1" parent="pw6W-h8T3FxFi5064eeH-2">
          <mxGeometry y="60" width="180" height="30" as="geometry" />
        </mxCell>
        <mxCell id="pw6W-h8T3FxFi5064eeH-7" value="" style="shape=partialRectangle;connectable=0;fillColor=none;top=0;left=0;bottom=0;right=0;editable=1;overflow=hidden;strokeColor=#028090;fontColor=#E4FDE1;" vertex="1" parent="pw6W-h8T3FxFi5064eeH-6">
          <mxGeometry width="30" height="30" as="geometry" />
        </mxCell>
        <mxCell id="pw6W-h8T3FxFi5064eeH-8" value="faculty_id" style="shape=partialRectangle;connectable=0;fillColor=none;top=0;left=0;bottom=0;right=0;align=left;spacingLeft=6;overflow=hidden;strokeColor=#028090;fontColor=#E4FDE1;" vertex="1" parent="pw6W-h8T3FxFi5064eeH-6">
          <mxGeometry x="30" width="150" height="30" as="geometry" />
        </mxCell>
        <mxCell id="pw6W-h8T3FxFi5064eeH-9" value="" style="shape=partialRectangle;collapsible=0;dropTarget=0;pointerEvents=0;fillColor=none;top=0;left=0;bottom=0;right=0;points=[[0,0.5],[1,0.5]];portConstraint=eastwest;strokeColor=#028090;fontColor=#E4FDE1;" vertex="1" parent="pw6W-h8T3FxFi5064eeH-2">
          <mxGeometry y="90" width="180" height="30" as="geometry" />
        </mxCell>
        <mxCell id="pw6W-h8T3FxFi5064eeH-10" value="" style="shape=partialRectangle;connectable=0;fillColor=none;top=0;left=0;bottom=0;right=0;editable=1;overflow=hidden;strokeColor=#028090;fontColor=#E4FDE1;" vertex="1" parent="pw6W-h8T3FxFi5064eeH-9">
          <mxGeometry width="30" height="30" as="geometry" />
        </mxCell>
        <mxCell id="pw6W-h8T3FxFi5064eeH-11" value="name" style="shape=partialRectangle;connectable=0;fillColor=none;top=0;left=0;bottom=0;right=0;align=left;spacingLeft=6;overflow=hidden;strokeColor=#028090;fontColor=#E4FDE1;" vertex="1" parent="pw6W-h8T3FxFi5064eeH-9">
          <mxGeometry x="30" width="150" height="30" as="geometry" />
        </mxCell>
        <mxCell id="pw6W-h8T3FxFi5064eeH-12" value="" style="shape=partialRectangle;collapsible=0;dropTarget=0;pointerEvents=0;fillColor=none;top=0;left=0;bottom=0;right=0;points=[[0,0.5],[1,0.5]];portConstraint=eastwest;strokeColor=#028090;fontColor=#E4FDE1;" vertex="1" parent="pw6W-h8T3FxFi5064eeH-2">
          <mxGeometry y="120" width="180" height="30" as="geometry" />
        </mxCell>
        <mxCell id="pw6W-h8T3FxFi5064eeH-13" value="" style="shape=partialRectangle;connectable=0;fillColor=none;top=0;left=0;bottom=0;right=0;editable=1;overflow=hidden;strokeColor=#028090;fontColor=#E4FDE1;" vertex="1" parent="pw6W-h8T3FxFi5064eeH-12">
          <mxGeometry width="30" height="30" as="geometry" />
        </mxCell>
        <mxCell id="pw6W-h8T3FxFi5064eeH-14" value="Date" style="shape=partialRectangle;connectable=0;fillColor=none;top=0;left=0;bottom=0;right=0;align=left;spacingLeft=6;overflow=hidden;strokeColor=#028090;fontColor=#E4FDE1;" vertex="1" parent="pw6W-h8T3FxFi5064eeH-12">
          <mxGeometry x="30" width="150" height="30" as="geometry" />
        </mxCell>
        <mxCell id="pw6W-h8T3FxFi5064eeH-19" value="Funding" style="shape=partialRectangle;connectable=0;fillColor=none;top=0;left=0;bottom=0;right=0;align=left;spacingLeft=6;overflow=hidden;strokeColor=#028090;fontColor=#E4FDE1;" vertex="1" parent="1">
          <mxGeometry x="-290" y="165" width="150" height="30" as="geometry" />
        </mxCell>
        <mxCell id="pw6W-h8T3FxFi5064eeH-20" style="edgeStyle=orthogonalEdgeStyle;rounded=0;orthogonalLoop=1;jettySize=auto;html=1;exitX=0;exitY=0.5;exitDx=0;exitDy=0;strokeColor=#028090;fontColor=#E4FDE1;labelBackgroundColor=#114B5F;" edge="1" parent="1" source="xS_lr7cDpIve7zk9qNYF-120">
          <mxGeometry relative="1" as="geometry">
            <mxPoint x="-320" y="180" as="targetPoint" />
            <Array as="points">
              <mxPoint x="310" y="135" />
              <mxPoint x="310" y="240" />
              <mxPoint x="-340" y="240" />
              <mxPoint x="-340" y="180" />
            </Array>
          </mxGeometry>
        </mxCell>
        <mxCell id="pw6W-h8T3FxFi5064eeH-22" value="Researchers" style="shape=table;startSize=30;container=1;collapsible=1;childLayout=tableLayout;fixedRows=1;rowLines=0;fontStyle=1;align=center;resizeLast=1;fillColor=#F45B69;strokeColor=#028090;fontColor=#E4FDE1;" vertex="1" parent="1">
          <mxGeometry x="-410" y="360" width="180" height="150" as="geometry" />
        </mxCell>
        <mxCell id="pw6W-h8T3FxFi5064eeH-23" value="" style="shape=partialRectangle;collapsible=0;dropTarget=0;pointerEvents=0;fillColor=none;top=0;left=0;bottom=1;right=0;points=[[0,0.5],[1,0.5]];portConstraint=eastwest;strokeColor=#028090;fontColor=#E4FDE1;" vertex="1" parent="pw6W-h8T3FxFi5064eeH-22">
          <mxGeometry y="30" width="180" height="30" as="geometry" />
        </mxCell>
        <mxCell id="pw6W-h8T3FxFi5064eeH-24" value="PK" style="shape=partialRectangle;connectable=0;fillColor=none;top=0;left=0;bottom=0;right=0;fontStyle=1;overflow=hidden;strokeColor=#028090;fontColor=#E4FDE1;" vertex="1" parent="pw6W-h8T3FxFi5064eeH-23">
          <mxGeometry width="30" height="30" as="geometry" />
        </mxCell>
        <mxCell id="pw6W-h8T3FxFi5064eeH-25" value="research_id" style="shape=partialRectangle;connectable=0;fillColor=none;top=0;left=0;bottom=0;right=0;align=left;spacingLeft=6;fontStyle=5;overflow=hidden;strokeColor=#028090;fontColor=#E4FDE1;" vertex="1" parent="pw6W-h8T3FxFi5064eeH-23">
          <mxGeometry x="30" width="150" height="30" as="geometry" />
        </mxCell>
        <mxCell id="pw6W-h8T3FxFi5064eeH-26" value="" style="shape=partialRectangle;collapsible=0;dropTarget=0;pointerEvents=0;fillColor=none;top=0;left=0;bottom=0;right=0;points=[[0,0.5],[1,0.5]];portConstraint=eastwest;strokeColor=#028090;fontColor=#E4FDE1;" vertex="1" parent="pw6W-h8T3FxFi5064eeH-22">
          <mxGeometry y="60" width="180" height="30" as="geometry" />
        </mxCell>
        <mxCell id="pw6W-h8T3FxFi5064eeH-27" value="Fk" style="shape=partialRectangle;connectable=0;fillColor=none;top=0;left=0;bottom=0;right=0;editable=1;overflow=hidden;strokeColor=#028090;fontColor=#E4FDE1;" vertex="1" parent="pw6W-h8T3FxFi5064eeH-26">
          <mxGeometry width="30" height="30" as="geometry" />
        </mxCell>
        <mxCell id="pw6W-h8T3FxFi5064eeH-28" value="faculty_id" style="shape=partialRectangle;connectable=0;fillColor=none;top=0;left=0;bottom=0;right=0;align=left;spacingLeft=6;overflow=hidden;strokeColor=#028090;fontColor=#E4FDE1;" vertex="1" parent="pw6W-h8T3FxFi5064eeH-26">
          <mxGeometry x="30" width="150" height="30" as="geometry" />
        </mxCell>
        <mxCell id="pw6W-h8T3FxFi5064eeH-29" value="" style="shape=partialRectangle;collapsible=0;dropTarget=0;pointerEvents=0;fillColor=none;top=0;left=0;bottom=0;right=0;points=[[0,0.5],[1,0.5]];portConstraint=eastwest;strokeColor=#028090;fontColor=#E4FDE1;" vertex="1" parent="pw6W-h8T3FxFi5064eeH-22">
          <mxGeometry y="90" width="180" height="30" as="geometry" />
        </mxCell>
        <mxCell id="pw6W-h8T3FxFi5064eeH-30" value="" style="shape=partialRectangle;connectable=0;fillColor=none;top=0;left=0;bottom=0;right=0;editable=1;overflow=hidden;strokeColor=#028090;fontColor=#E4FDE1;" vertex="1" parent="pw6W-h8T3FxFi5064eeH-29">
          <mxGeometry width="30" height="30" as="geometry" />
        </mxCell>
        <mxCell id="pw6W-h8T3FxFi5064eeH-31" value="" style="shape=partialRectangle;connectable=0;fillColor=none;top=0;left=0;bottom=0;right=0;align=left;spacingLeft=6;overflow=hidden;strokeColor=#028090;fontColor=#E4FDE1;" vertex="1" parent="pw6W-h8T3FxFi5064eeH-29">
          <mxGeometry x="30" width="150" height="30" as="geometry" />
        </mxCell>
        <mxCell id="pw6W-h8T3FxFi5064eeH-32" value="" style="shape=partialRectangle;collapsible=0;dropTarget=0;pointerEvents=0;fillColor=none;top=0;left=0;bottom=0;right=0;points=[[0,0.5],[1,0.5]];portConstraint=eastwest;strokeColor=#028090;fontColor=#E4FDE1;" vertex="1" parent="pw6W-h8T3FxFi5064eeH-22">
          <mxGeometry y="120" width="180" height="30" as="geometry" />
        </mxCell>
        <mxCell id="pw6W-h8T3FxFi5064eeH-33" value="" style="shape=partialRectangle;connectable=0;fillColor=none;top=0;left=0;bottom=0;right=0;editable=1;overflow=hidden;strokeColor=#028090;fontColor=#E4FDE1;" vertex="1" parent="pw6W-h8T3FxFi5064eeH-32">
          <mxGeometry width="30" height="30" as="geometry" />
        </mxCell>
        <mxCell id="pw6W-h8T3FxFi5064eeH-34" value="" style="shape=partialRectangle;connectable=0;fillColor=none;top=0;left=0;bottom=0;right=0;align=left;spacingLeft=6;overflow=hidden;strokeColor=#028090;fontColor=#E4FDE1;" vertex="1" parent="pw6W-h8T3FxFi5064eeH-32">
          <mxGeometry x="30" width="150" height="30" as="geometry" />
        </mxCell>
        <mxCell id="pw6W-h8T3FxFi5064eeH-48" value="&lt;span style=&quot;color: rgb(0, 0, 0); font-family: helvetica; font-size: 12px; font-style: normal; font-weight: 400; letter-spacing: normal; text-align: left; text-indent: 0px; text-transform: none; word-spacing: 0px; background-color: rgb(248, 249, 250); display: inline; float: none;&quot;&gt;name&lt;/span&gt;" style="text;whiteSpace=wrap;html=1;fontColor=#E4FDE1;" vertex="1" parent="1">
          <mxGeometry x="645" y="140" width="60" height="30" as="geometry" />
        </mxCell>
        <mxCell id="pw6W-h8T3FxFi5064eeH-56" style="edgeStyle=orthogonalEdgeStyle;rounded=0;orthogonalLoop=1;jettySize=auto;html=1;exitX=1;exitY=0.5;exitDx=0;exitDy=0;strokeColor=#028090;fontColor=#E4FDE1;labelBackgroundColor=#114B5F;" edge="1" parent="1" source="xS_lr7cDpIve7zk9qNYF-101">
          <mxGeometry relative="1" as="geometry">
            <mxPoint x="600" y="205" as="targetPoint" />
            <Array as="points">
              <mxPoint x="520" y="445" />
              <mxPoint x="520" y="205" />
            </Array>
          </mxGeometry>
        </mxCell>
        <mxCell id="pw6W-h8T3FxFi5064eeH-57" value="Dept_id" style="text;html=1;align=center;verticalAlign=middle;resizable=0;points=[];autosize=1;strokeColor=none;fontColor=#E4FDE1;" vertex="1" parent="1">
          <mxGeometry x="640" y="195" width="60" height="20" as="geometry" />
        </mxCell>
        <mxCell id="pw6W-h8T3FxFi5064eeH-59" style="edgeStyle=orthogonalEdgeStyle;rounded=0;orthogonalLoop=1;jettySize=auto;html=1;exitX=0;exitY=0.5;exitDx=0;exitDy=0;entryX=0;entryY=0.5;entryDx=0;entryDy=0;strokeColor=#028090;fontColor=#E4FDE1;labelBackgroundColor=#114B5F;" edge="1" parent="1" source="xS_lr7cDpIve7zk9qNYF-101" target="xS_lr7cDpIve7zk9qNYF-117">
          <mxGeometry relative="1" as="geometry" />
        </mxCell>
        <mxCell id="pw6W-h8T3FxFi5064eeH-60" value="Faculty_id" style="shape=partialRectangle;connectable=0;fillColor=none;top=0;left=0;bottom=0;right=0;align=left;spacingLeft=6;overflow=hidden;strokeColor=#028090;fontColor=#E4FDE1;" vertex="1" parent="1">
          <mxGeometry x="640" y="165" width="150" height="30" as="geometry" />
        </mxCell>
        <mxCell id="pw6W-h8T3FxFi5064eeH-61" style="edgeStyle=orthogonalEdgeStyle;rounded=0;orthogonalLoop=1;jettySize=auto;html=1;exitX=0;exitY=0.5;exitDx=0;exitDy=0;strokeColor=#028090;fontColor=#E4FDE1;labelBackgroundColor=#114B5F;" edge="1" parent="1" source="xS_lr7cDpIve7zk9qNYF-47">
          <mxGeometry relative="1" as="geometry">
            <mxPoint x="600" y="180" as="targetPoint" />
            <Array as="points">
              <mxPoint x="540" y="425" />
              <mxPoint x="540" y="180" />
            </Array>
          </mxGeometry>
        </mxCell>
        <mxCell id="pw6W-h8T3FxFi5064eeH-64" value="" style="shape=partialRectangle;collapsible=0;dropTarget=0;pointerEvents=0;fillColor=none;top=0;left=0;bottom=0;right=0;points=[[0,0.5],[1,0.5]];portConstraint=eastwest;strokeColor=#028090;fontColor=#E4FDE1;" vertex="1" parent="1">
          <mxGeometry x="40" y="500" width="180" height="30" as="geometry" />
        </mxCell>
        <mxCell id="pw6W-h8T3FxFi5064eeH-65" value="" style="shape=partialRectangle;connectable=0;fillColor=none;top=0;left=0;bottom=0;right=0;editable=1;overflow=hidden;strokeColor=#028090;fontColor=#E4FDE1;" vertex="1" parent="pw6W-h8T3FxFi5064eeH-64">
          <mxGeometry width="30" height="30" as="geometry" />
        </mxCell>
        <mxCell id="pw6W-h8T3FxFi5064eeH-66" value="area" style="shape=partialRectangle;connectable=0;fillColor=none;top=0;left=0;bottom=0;right=0;align=left;spacingLeft=6;overflow=hidden;strokeColor=#028090;fontColor=#E4FDE1;" vertex="1" parent="pw6W-h8T3FxFi5064eeH-64">
          <mxGeometry x="30" width="150" height="30" as="geometry" />
        </mxCell>
        <mxCell id="pw6W-h8T3FxFi5064eeH-67" value="" style="shape=partialRectangle;collapsible=0;dropTarget=0;pointerEvents=0;fillColor=none;top=0;left=0;bottom=0;right=0;points=[[0,0.5],[1,0.5]];portConstraint=eastwest;strokeColor=#028090;fontColor=#E4FDE1;" vertex="1" parent="1">
          <mxGeometry x="40" y="520" width="180" height="30" as="geometry" />
        </mxCell>
        <mxCell id="pw6W-h8T3FxFi5064eeH-68" value="" style="shape=partialRectangle;connectable=0;fillColor=none;top=0;left=0;bottom=0;right=0;editable=1;overflow=hidden;strokeColor=#028090;fontColor=#E4FDE1;" vertex="1" parent="pw6W-h8T3FxFi5064eeH-67">
          <mxGeometry width="30" height="30" as="geometry" />
        </mxCell>
        <mxCell id="pw6W-h8T3FxFi5064eeH-69" value="city" style="shape=partialRectangle;connectable=0;fillColor=none;top=0;left=0;bottom=0;right=0;align=left;spacingLeft=6;overflow=hidden;strokeColor=#028090;fontColor=#E4FDE1;" vertex="1" parent="pw6W-h8T3FxFi5064eeH-67">
          <mxGeometry x="30" width="150" height="30" as="geometry" />
        </mxCell>
        <mxCell id="pw6W-h8T3FxFi5064eeH-70" value="" style="shape=partialRectangle;collapsible=0;dropTarget=0;pointerEvents=0;fillColor=none;top=0;left=0;bottom=0;right=0;points=[[0,0.5],[1,0.5]];portConstraint=eastwest;strokeColor=#028090;fontColor=#E4FDE1;" vertex="1" parent="1">
          <mxGeometry x="40" y="540" width="180" height="30" as="geometry" />
        </mxCell>
        <mxCell id="pw6W-h8T3FxFi5064eeH-71" value="" style="shape=partialRectangle;connectable=0;fillColor=none;top=0;left=0;bottom=0;right=0;editable=1;overflow=hidden;strokeColor=#028090;fontColor=#E4FDE1;" vertex="1" parent="pw6W-h8T3FxFi5064eeH-70">
          <mxGeometry width="30" height="30" as="geometry" />
        </mxCell>
        <mxCell id="pw6W-h8T3FxFi5064eeH-72" value="state" style="shape=partialRectangle;connectable=0;fillColor=none;top=0;left=0;bottom=0;right=0;align=left;spacingLeft=6;overflow=hidden;strokeColor=#028090;fontColor=#E4FDE1;" vertex="1" parent="pw6W-h8T3FxFi5064eeH-70">
          <mxGeometry x="30" width="150" height="30" as="geometry" />
        </mxCell>
        <mxCell id="pw6W-h8T3FxFi5064eeH-73" value="" style="shape=partialRectangle;collapsible=0;dropTarget=0;pointerEvents=0;fillColor=none;top=0;left=0;bottom=0;right=0;points=[[0,0.5],[1,0.5]];portConstraint=eastwest;strokeColor=#028090;fontColor=#E4FDE1;" vertex="1" parent="1">
          <mxGeometry x="40" y="560" width="180" height="30" as="geometry" />
        </mxCell>
        <mxCell id="pw6W-h8T3FxFi5064eeH-74" value="" style="shape=partialRectangle;connectable=0;fillColor=none;top=0;left=0;bottom=0;right=0;editable=1;overflow=hidden;strokeColor=#028090;fontColor=#E4FDE1;" vertex="1" parent="pw6W-h8T3FxFi5064eeH-73">
          <mxGeometry width="30" height="30" as="geometry" />
        </mxCell>
        <mxCell id="pw6W-h8T3FxFi5064eeH-75" value="pincode" style="shape=partialRectangle;connectable=0;fillColor=none;top=0;left=0;bottom=0;right=0;align=left;spacingLeft=6;overflow=hidden;strokeColor=#028090;fontColor=#E4FDE1;" vertex="1" parent="pw6W-h8T3FxFi5064eeH-73">
          <mxGeometry x="30" width="150" height="30" as="geometry" />
        </mxCell>
        <mxCell id="pw6W-h8T3FxFi5064eeH-76" style="edgeStyle=orthogonalEdgeStyle;rounded=0;orthogonalLoop=1;jettySize=auto;html=1;exitX=0;exitY=0.5;exitDx=0;exitDy=0;entryX=0;entryY=0.5;entryDx=0;entryDy=0;strokeColor=#028090;fontColor=#E4FDE1;labelBackgroundColor=#114B5F;" edge="1" parent="1" source="pw6W-h8T3FxFi5064eeH-3" target="pw6W-h8T3FxFi5064eeH-23">
          <mxGeometry relative="1" as="geometry">
            <mxPoint x="-500" y="410" as="targetPoint" />
          </mxGeometry>
        </mxCell>
        <mxCell id="pw6W-h8T3FxFi5064eeH-77" style="edgeStyle=orthogonalEdgeStyle;rounded=0;orthogonalLoop=1;jettySize=auto;html=1;exitX=0;exitY=0.5;exitDx=0;exitDy=0;entryX=0;entryY=0.5;entryDx=0;entryDy=0;strokeColor=#028090;fontColor=#E4FDE1;labelBackgroundColor=#114B5F;" edge="1" parent="1" source="xS_lr7cDpIve7zk9qNYF-47" target="pw6W-h8T3FxFi5064eeH-26">
          <mxGeometry relative="1" as="geometry">
            <Array as="points">
              <mxPoint x="600" y="425" />
              <mxPoint x="600" y="930" />
              <mxPoint x="-430" y="930" />
              <mxPoint x="-430" y="435" />
            </Array>
          </mxGeometry>
        </mxCell>
        <mxCell id="pw6W-h8T3FxFi5064eeH-78" value="FK" style="text;html=1;align=center;verticalAlign=middle;resizable=0;points=[];autosize=1;strokeColor=none;fontColor=#E4FDE1;" vertex="1" parent="1">
          <mxGeometry x="-325" y="170" width="30" height="20" as="geometry" />
        </mxCell>
        <mxCell id="pw6W-h8T3FxFi5064eeH-79" value="student_Enrolled" style="shape=table;startSize=30;container=1;collapsible=1;childLayout=tableLayout;fixedRows=1;rowLines=0;fontStyle=1;align=center;resizeLast=1;fillColor=#F45B69;strokeColor=#028090;fontColor=#E4FDE1;" vertex="1" parent="1">
          <mxGeometry x="-320" y="690" width="180" height="120" as="geometry" />
        </mxCell>
        <mxCell id="pw6W-h8T3FxFi5064eeH-80" value="" style="shape=partialRectangle;collapsible=0;dropTarget=0;pointerEvents=0;fillColor=none;top=0;left=0;bottom=1;right=0;points=[[0,0.5],[1,0.5]];portConstraint=eastwest;strokeColor=#028090;fontColor=#E4FDE1;" vertex="1" parent="pw6W-h8T3FxFi5064eeH-79">
          <mxGeometry y="30" width="180" height="30" as="geometry" />
        </mxCell>
        <mxCell id="pw6W-h8T3FxFi5064eeH-81" value="FK" style="shape=partialRectangle;connectable=0;fillColor=none;top=0;left=0;bottom=0;right=0;fontStyle=1;overflow=hidden;strokeColor=#028090;fontColor=#E4FDE1;" vertex="1" parent="pw6W-h8T3FxFi5064eeH-80">
          <mxGeometry width="30" height="30" as="geometry" />
        </mxCell>
        <mxCell id="pw6W-h8T3FxFi5064eeH-82" value="s_id" style="shape=partialRectangle;connectable=0;fillColor=none;top=0;left=0;bottom=0;right=0;align=left;spacingLeft=6;fontStyle=5;overflow=hidden;strokeColor=#028090;fontColor=#E4FDE1;" vertex="1" parent="pw6W-h8T3FxFi5064eeH-80">
          <mxGeometry x="30" width="150" height="30" as="geometry" />
        </mxCell>
        <mxCell id="pw6W-h8T3FxFi5064eeH-83" value="" style="shape=partialRectangle;collapsible=0;dropTarget=0;pointerEvents=0;fillColor=none;top=0;left=0;bottom=0;right=0;points=[[0,0.5],[1,0.5]];portConstraint=eastwest;strokeColor=#028090;fontColor=#E4FDE1;" vertex="1" parent="pw6W-h8T3FxFi5064eeH-79">
          <mxGeometry y="60" width="180" height="30" as="geometry" />
        </mxCell>
        <mxCell id="pw6W-h8T3FxFi5064eeH-84" value="FK" style="shape=partialRectangle;connectable=0;fillColor=none;top=0;left=0;bottom=0;right=0;editable=1;overflow=hidden;strokeColor=#028090;fontColor=#E4FDE1;" vertex="1" parent="pw6W-h8T3FxFi5064eeH-83">
          <mxGeometry width="30" height="30" as="geometry" />
        </mxCell>
        <mxCell id="pw6W-h8T3FxFi5064eeH-85" value="c_id" style="shape=partialRectangle;connectable=0;fillColor=none;top=0;left=0;bottom=0;right=0;align=left;spacingLeft=6;overflow=hidden;strokeColor=#028090;fontColor=#E4FDE1;" vertex="1" parent="pw6W-h8T3FxFi5064eeH-83">
          <mxGeometry x="30" width="150" height="30" as="geometry" />
        </mxCell>
        <mxCell id="pw6W-h8T3FxFi5064eeH-86" value="" style="shape=partialRectangle;collapsible=0;dropTarget=0;pointerEvents=0;fillColor=none;top=0;left=0;bottom=0;right=0;points=[[0,0.5],[1,0.5]];portConstraint=eastwest;strokeColor=#028090;fontColor=#E4FDE1;" vertex="1" parent="pw6W-h8T3FxFi5064eeH-79">
          <mxGeometry y="90" width="180" height="30" as="geometry" />
        </mxCell>
        <mxCell id="pw6W-h8T3FxFi5064eeH-87" value="" style="shape=partialRectangle;connectable=0;fillColor=none;top=0;left=0;bottom=0;right=0;editable=1;overflow=hidden;strokeColor=#028090;fontColor=#E4FDE1;" vertex="1" parent="pw6W-h8T3FxFi5064eeH-86">
          <mxGeometry width="30" height="30" as="geometry" />
        </mxCell>
        <mxCell id="pw6W-h8T3FxFi5064eeH-88" value="sname" style="shape=partialRectangle;connectable=0;fillColor=none;top=0;left=0;bottom=0;right=0;align=left;spacingLeft=6;overflow=hidden;strokeColor=#028090;fontColor=#E4FDE1;" vertex="1" parent="pw6W-h8T3FxFi5064eeH-86">
          <mxGeometry x="30" width="150" height="30" as="geometry" />
        </mxCell>
        <mxCell id="pw6W-h8T3FxFi5064eeH-92" style="edgeStyle=orthogonalEdgeStyle;rounded=0;orthogonalLoop=1;jettySize=auto;html=1;exitX=0;exitY=0.5;exitDx=0;exitDy=0;entryX=0;entryY=0.5;entryDx=0;entryDy=0;strokeColor=#028090;fontColor=#E4FDE1;labelBackgroundColor=#114B5F;" edge="1" parent="1" source="xS_lr7cDpIve7zk9qNYF-30" target="pw6W-h8T3FxFi5064eeH-80">
          <mxGeometry relative="1" as="geometry">
            <Array as="points">
              <mxPoint x="-160" y="335" />
              <mxPoint x="-160" y="550" />
              <mxPoint x="-340" y="550" />
              <mxPoint x="-340" y="735" />
            </Array>
          </mxGeometry>
        </mxCell>
        <mxCell id="pw6W-h8T3FxFi5064eeH-93" style="edgeStyle=orthogonalEdgeStyle;rounded=0;orthogonalLoop=1;jettySize=auto;html=1;exitX=0;exitY=0.5;exitDx=0;exitDy=0;entryX=0;entryY=0.5;entryDx=0;entryDy=0;strokeColor=#028090;fontColor=#E4FDE1;labelBackgroundColor=#114B5F;" edge="1" parent="1" source="xS_lr7cDpIve7zk9qNYF-66" target="pw6W-h8T3FxFi5064eeH-83">
          <mxGeometry relative="1" as="geometry">
            <Array as="points">
              <mxPoint x="280" y="890" />
              <mxPoint x="-340" y="890" />
              <mxPoint x="-340" y="765" />
            </Array>
          </mxGeometry>
        </mxCell>
        <mxCell id="pw6W-h8T3FxFi5064eeH-107" value="" style="shape=partialRectangle;collapsible=0;dropTarget=0;pointerEvents=0;fillColor=none;top=0;left=0;bottom=0;right=0;points=[[0,0.5],[1,0.5]];portConstraint=eastwest;strokeColor=#028090;fontColor=#E4FDE1;" vertex="1" parent="1">
          <mxGeometry x="30" y="580" width="180" height="30" as="geometry" />
        </mxCell>
        <mxCell id="pw6W-h8T3FxFi5064eeH-108" value="" style="shape=partialRectangle;connectable=0;fillColor=none;top=0;left=0;bottom=0;right=0;editable=1;overflow=hidden;strokeColor=#028090;fontColor=#E4FDE1;" vertex="1" parent="pw6W-h8T3FxFi5064eeH-107">
          <mxGeometry width="30" height="30" as="geometry" />
        </mxCell>
        <mxCell id="pw6W-h8T3FxFi5064eeH-109" value="Dept" style="shape=partialRectangle;connectable=0;fillColor=none;top=0;left=0;bottom=0;right=0;align=left;spacingLeft=6;overflow=hidden;strokeColor=#028090;fontColor=#E4FDE1;" vertex="1" parent="pw6W-h8T3FxFi5064eeH-107">
          <mxGeometry x="40" width="150" height="30" as="geometry" />
        </mxCell>
        <mxCell id="pw6W-h8T3FxFi5064eeH-110" style="edgeStyle=orthogonalEdgeStyle;curved=0;rounded=1;sketch=0;orthogonalLoop=1;jettySize=auto;html=1;exitX=0;exitY=0.5;exitDx=0;exitDy=0;entryX=0;entryY=0.5;entryDx=0;entryDy=0;fontColor=#E4FDE1;strokeColor=#028090;fillColor=#F45B69;" edge="1" parent="1" source="xS_lr7cDpIve7zk9qNYF-101" target="pw6W-h8T3FxFi5064eeH-107">
          <mxGeometry relative="1" as="geometry">
            <Array as="points">
              <mxPoint x="300" y="650" />
              <mxPoint x="10" y="650" />
              <mxPoint x="10" y="595" />
            </Array>
          </mxGeometry>
        </mxCell>
      </root>
    </mxGraphModel>
  </diagram>
</mxfile>
